<?xml version="1.0" encoding="UTF-8" standalone="no" ?>
<!DOCTYPE svg PUBLIC "-//W3C//DTD SVG 1.1//EN" "http://www.w3.org/Graphics/SVG/1.1/DTD/svg11.dtd">
<svg xmlns="http://www.w3.org/2000/svg" xmlns:xlink="http://www.w3.org/1999/xlink" version="1.1" width="504" height="504" viewBox="0 0 504 504" xml:space="preserve">
<desc>Created with Fabric.js 5.3.0</desc>
<defs>
</defs>
<g transform="matrix(1 0 0 1 252 252.0000014224)" id="o7kio4Gv67Nt0M88gucqw"  >
<g style=""   >
		<g transform="matrix(1.6855660475 0 0 1.6855660475 0 -0.4332252939)" id="iz4b7QzDXaPFJ2BdO438J"  >
<path style="stroke: rgb(255,255,255); stroke-width: 15; stroke-dasharray: none; stroke-linecap: butt; stroke-dashoffset: 0; stroke-linejoin: miter; stroke-miterlimit: 4; fill: rgb(255,255,255); fill-opacity: 0; fill-rule: nonzero; opacity: 1;"  transform=" translate(0, -0.0000023294)" d="M -88.19966 -66.67244 L -130.61416 -23.383809999999997 L -130.61416 -23.383809999999997 C -131.00482 -22.985099999999996 -131.22362999999999 -22.449139999999996 -131.22362999999999 -21.890939999999997 L -131.22362999999999 122.82876999999999 L -131.22362999999999 122.82876999999999 C -131.22362999999999 123.05023999999999 -131.04408999999998 123.22977999999999 -130.82261999999997 123.22977999999999 L 131.11845000000005 123.22977999999999 L 131.11845000000005 123.22977999999999 C 131.17654000000005 123.22977999999999 131.22363000000004 123.18269 131.22363000000004 123.12459999999999 L 131.22363000000004 -47.97655 L 131.22363000000004 -47.97655 C 131.22363000000004 -48.928050000000006 130.68631000000005 -49.79798 129.83548000000005 -50.22395 L 92.43793000000005 -68.94758 L 92.43793000000005 -68.94758 C 92.16587000000006 -69.08379000000001 91.83732000000005 -69.03208000000001 91.62024000000005 -68.81889 L 44.725730000000055 -22.761789999999998 L 44.725730000000055 -104.18267 L 44.725730000000055 -104.18267 C 44.725730000000055 -104.61587 44.47381000000006 -105.00952 44.08046000000006 -105.19098 L 5.585010000000061 -122.94990999999999 L 5.585010000000061 -122.94990999999999 C 4.428240000000061 -123.48355999999998 3.061490000000061 -123.23992999999999 2.160350000000061 -122.33946999999999 L -42.74645999999994 -77.46603999999999 L -42.74645999999994 -77.46603999999999 C -43.41270999999994 -76.80028999999999 -43.78703999999994 -75.89703999999999 -43.78703999999994 -74.95518 L -43.78703999999994 -49.52897 L -83.01033999999994 -70.2031 L -83.01033999999994 -70.2031 C -83.68725999999994 -70.55990000000001 -84.51812999999994 -70.42985 -85.05365999999994 -69.88329 z" stroke-linecap="round" />
</g>
		<g transform="matrix(1.6855660475 0 0 1.6184401959 -142.4736029056 47.6226102033)" id="8-llpLYhRc2fw-tt7u0Tz"  >
<path style="stroke: rgb(255,255,255); stroke-width: 15; stroke-dasharray: none; stroke-linecap: butt; stroke-dashoffset: 0; stroke-linejoin: miter; stroke-miterlimit: 4; fill: rgb(255,255,255); fill-opacity: 0; fill-rule: nonzero; opacity: 1;"  transform=" translate(0, 0)" d="M 0 -96.45253 L 0 96.45253" stroke-linecap="round" />
</g>
		<g transform="matrix(1.6855660475 0 0 1.6855660475 5.4579320649 -1.3656220627)" id="Srhbm57py4-Um2Aa6h5gQ"  >
<path style="stroke: rgb(255,255,255); stroke-width: 15; stroke-dasharray: none; stroke-linecap: butt; stroke-dashoffset: 0; stroke-linejoin: miter; stroke-miterlimit: 4; fill: rgb(255,255,255); fill-opacity: 0; fill-rule: nonzero; opacity: 1;"  transform=" translate(0, 0)" d="M 0 -123.28481 L 0 123.28481" stroke-linecap="round" />
</g>
		<g transform="matrix(1.6855660475 0 0 1.6855660475 154.4123298528 45.9955834301)" id="MZKXosYZEH-PAlOa715_b"  >
<path style="stroke: rgb(255,255,255); stroke-width: 15; stroke-dasharray: none; stroke-linecap: butt; stroke-dashoffset: 0; stroke-linejoin: miter; stroke-miterlimit: 4; fill: rgb(255,255,255); fill-opacity: 0; fill-rule: nonzero; opacity: 1;"  transform=" translate(0, 0)" d="M 0 -95.18671 L 0 95.18671" stroke-linecap="round" />
</g>
		<g transform="matrix(1.6722318379 0 0 1.6855660475 -73.756895236 64.3734293711)" id="0dE6JWqyAB9KpC2Ik0c8j"  >
<path style="stroke: rgb(255,255,255); stroke-width: 15; stroke-dasharray: none; stroke-linecap: butt; stroke-dashoffset: 0; stroke-linejoin: miter; stroke-miterlimit: 4; fill: rgb(255,255,255); fill-opacity: 0; fill-rule: nonzero; opacity: 1;"  transform=" translate(0, 0)" d="M 0 -85.90401 L 0 85.90401" stroke-linecap="round" />
</g>
		<g transform="matrix(1.6855660475 0 0 1.6855660475 75.4680972483 -47.5942267409)" id="Sd_zumVkfhPYurw2TAfLO"  >
<path style="stroke: rgb(255,255,255); stroke-width: 15; stroke-dasharray: none; stroke-linecap: butt; stroke-dashoffset: 0; stroke-linejoin: miter; stroke-miterlimit: 4; fill: rgb(255,255,255); fill-opacity: 0; fill-rule: nonzero; opacity: 1;"  transform=" translate(0, 0)" d="M 0 0" stroke-linecap="round" />
</g>
		<g transform="matrix(1.6855660475 0 0 1.6660924768 75.4680972483 77.3924053798)" id="p0PkR_24qSlHVeJn_XtDy"  >
<path style="stroke: rgb(255,255,255); stroke-width: 15; stroke-dasharray: none; stroke-linecap: butt; stroke-dashoffset: 0; stroke-linejoin: miter; stroke-miterlimit: 4; fill: rgb(255,255,255); fill-opacity: 0; fill-rule: nonzero; opacity: 1;"  transform=" translate(0, 0.000005)" d="M 0 -75.10549 L 0 75.10548" stroke-linecap="round" />
</g>
</g>
</g>
</svg>